<?xml version="1.0" encoding="UTF-8"?>
<svg width="891px" height="891px" viewBox="0 0 891 891" version="1.1" xmlns="http://www.w3.org/2000/svg" xmlns:xlink="http://www.w3.org/1999/xlink">
    <!-- Generator: Sketch 48.2 (47327) - http://www.bohemiancoding.com/sketch -->
    <title>Group 6</title>
    <desc>Created with Sketch.</desc>
    <defs></defs>
    <g id="Page-1" stroke="none" stroke-width="1" fill="none" fill-rule="evenodd">
        <g id="Group-7" transform="translate(0.000000, -20.000000)">
            <g id="Group-6" transform="translate(0.000000, 20.000000)">
                <circle id="Oval-4" fill="#BE2323" cx="445.5" cy="445.5" r="445.5"></circle>
                <path d="M597.445517,570.731016 L730.630278,570.731016 C682.273732,680.425978 572.579276,757 445,757 C272.687158,757 133,617.312842 133,445 C133,272.687158 272.687158,133 445,133 C617.312842,133 757,272.687158 757,445 C757,464.538152 755.204075,483.656843 751.768299,502.2 L540.362445,502.2 L255.805547,502.2 C280.334209,583.440628 355.758399,642.6 445,642.6 C506.368246,642.6 561.202487,614.624603 597.445517,570.731016 Z M255.805547,387.8 L634.194453,387.8 C609.665791,306.559372 534.241601,247.4 445,247.4 C355.758399,247.4 280.334209,306.559372 255.805547,387.8 Z" id="Combined-Shape" fill="#FFFFFF" transform="translate(445.000000, 445.000000) rotate(-15.000000) translate(-445.000000, -445.000000) "></path>
                <path d="M366,747.110747 C400.079518,756.239133 418.199295,765.233236 420.359331,774.093055 C426.296705,798.446386 423.055228,795.674085 414.478553,831.105333 C405.901878,866.536581 434.092858,870.030279 440.199924,867.252519 C449.1098,863.199918 463.302016,852.958459 444.209152,817.732407 C435.896441,802.395579 437.212548,786.639649 440.885798,771.851098 C444.631062,756.77262 467.411879,761.315243 507.024299,751.110747 C533.432579,744.307749 503.35209,725.270833 416.782831,694 L366,747.110747 Z" id="Path-5" fill="#FFFFFF"></path>
            </g>
        </g>
    </g>
</svg>